<?xml version="1.0" encoding="utf-8"?>
<!-- Generator: Adobe Illustrator 25.2.1, SVG Export Plug-In . SVG Version: 6.00 Build 0)  -->
<svg version="1.1" id="Layer_1" xmlns="http://www.w3.org/2000/svg" xmlns:xlink="http://www.w3.org/1999/xlink" x="0px" y="0px"
	 viewBox="0 0 841.9 595.3" style="enable-background:new 0 0 841.9 595.3;" xml:space="preserve">
<style type="text/css">
	.st0{fill:none;stroke:#000000;stroke-width:6;stroke-miterlimit:10;}
</style>
<g id="Layer_3">
</g>
<g>
	<g>
		<circle cx="473.6" cy="170" r="13.4"/>
		<circle cx="401.7" cy="170" r="13.4"/>
	</g>
	<path class="st0" d="M472.4,449.3c0,4.4,0,8.8,0,13.2c0,0.1,0,0.2,0,0.3c-0.3,0.8-2.1,0.8-2.9,0.7c-7.2-0.1-14.4-0.2-21.7-0.2
		c-2,0-2.6,0.6-3,0.8c-3.7,1.9-5.5,7.3-4.9,11.7c0.8,5.2,4.7,8.1,5.6,8.7c22.3,0.2,44.5,0.3,66.8,0.5c0-0.3,0-3.6,0-3.9
		c0-13,0-23.3,0-28.4l0-16.5c0-138.7,0-208.1,0-208.2c0-16.6,0.1-33.3,0-49.9c0-7.2-1.1-14.3-3.4-21.3c-2.7-7.8-6.7-14.8-11.8-21
		c-5.2-6.2-11.4-11.3-18.6-15.3c-1-0.5-4-2.2-8.7-3.9c-6.4-2.4-16.9-5.5-31.2-5.8c-0.4,0-0.8,0-1.3,0c-14.3,0.3-24.8,3.4-31.2,5.8
		c-4.7,1.8-7.7,3.4-8.7,3.9c-7.1,4-13.4,9.1-18.6,15.3c-5.2,6.2-9.2,13.2-11.8,21c-2.4,7-3.4,14-3.4,21.3c-0.1,16.6,0,33.3,0,49.9
		c0,69.4,0,138.8,0,208.2c0,8.7,0,17.4,0,26.2c0,0.1,0,0.2,0,0.3c-0.3,0.8-2.1,0.8-2.9,0.8c-7.2-0.1-14.4-0.2-21.7-0.2
		c-2,0-2.6,0.6-3,0.8c-3.7,1.9-5.5,7.3-4.9,11.7c0.8,5.2,4.7,8.1,5.6,8.7c22.3,0.2,44.5,0.3,66.8,0.5c0-0.5,0-2,0-3.9
		c-0.1-61.7,0.5-123.4,0.3-185.2c0-1,0-4.9,2-8.7c0.7-1.4,1.6-2.7,2.8-3.8c1.1-1.1,2.4-1.9,3.7-2.8c4.2-2.7,9.7-2.9,10.8-3
		c10.7-0.8,18.9-0.8,29.6,0c1.1,0.1,6.6,0.2,10.8,3c1.3,0.8,2.6,1.7,3.7,2.8c1.2,1.2,2.1,2.5,2.8,3.8c2,3.8,2,7.7,2,8.7
		c-0.1,42.4,0.2,84.8,0.3,127.2L472.4,449.3z"/>
	<path d="M503.8,210.9c-3.1-13.5-36.5-16.7-55.9-17.5c-0.6-4.1-4.3-7.2-8.8-7.2c-4.4,0-8.1,3.1-8.8,7.2c-19.3,0.8-52.8,4-55.9,17.5
		c-0.8,3.4,0.5,6.8,2.2,9c5.7,7,21.3,5.4,37.8-0.3c0.7,3.2,2.3,7.8,6.2,11.9c6.6,7,15.1,7.8,18.7,7.8c0.1,0,0.1,0,0.2,0
		c2.1,0,9.8-0.2,16.3-6c0,0,5.4-4.7,7.4-12.1c0.1-0.6,0.3-1.1,0.4-1.7c16.5,5.7,32.2,7.4,37.9,0.3
		C503.4,217.8,504.6,214.3,503.8,210.9z M451,214.4c-0.4,1.6-1.2,3.4-2.7,5c-3.6,3.9-8.5,3.8-10.5,3.6c-1.7-0.2-5.9-1-8.8-4.7
		c-1-1.3-1.6-2.5-1.9-3.7c4.2-1.9,8.3-4,12.1-6.2C442.9,210.5,446.9,212.6,451,214.4z M381,218c-1.3-1.6-2.2-4.1-1.6-6.6
		c3-13.1,45.2-13,50.5-13c1.3,1.6,3.3,4.5,4.6,6.2c-0.9,0.7-2.3,1.6-4.1,2.7C413.5,218.1,387.7,226.3,381,218z M452.7,229.6
		c-3.5,3-8.1,4.7-13.1,4.7c-1.6,0-9.4-0.1-15.2-6.3c-3.3-3.6-4.6-7.6-5.1-10.2c1-0.4,2-0.8,3-1.2c0.5,1.4,1.4,2.9,2.7,4.7
		c4.1,5.3,10,6.4,12.3,6.6c0.5,0,1.1,0.1,1.9,0.1c1.2,0,7.9-0.1,12.8-5.3c2-2.1,3-4.4,3.6-6.3c1.1,0.5,2.3,1,3.4,1.4
		C458.5,221.1,457,225.9,452.7,229.6z M497,218c-6.8,8.3-32.5,0.1-49.4-10.6c-1.8-1.1-3.2-2.1-4.1-2.7c1.4-1.7,3.3-4.6,4.6-6.2
		c5.3,0,47.5-0.1,50.5,13C499.2,213.8,498.3,216.4,497,218z"/>
</g>
</svg>
